<svg width="20" height="20" viewBox="0 0 20 20" fill="none" xmlns="http://www.w3.org/2000/svg">
<path fill-rule="evenodd" clip-rule="evenodd" d="M9.94833 1.04163H10.0517C11.7758 1.04163 13.14 1.04163 14.2075 1.20079C15.31 1.36579 16.185 1.71246 16.8658 2.46913C17.5383 3.21579 17.8392 4.16079 17.9825 5.35246C18.125 6.52496 18.125 8.02913 18.125 9.95663V10.0433C18.125 11.9708 18.125 13.475 17.9833 14.6475C17.8392 15.8391 17.5383 16.7841 16.8667 17.5308C16.185 18.2875 15.3108 18.6341 14.2075 18.7991C13.14 18.9583 11.7758 18.9583 10.0525 18.9583H9.9475C8.22417 18.9583 6.86 18.9583 5.7925 18.7991C4.68917 18.6341 3.815 18.2875 3.13417 17.5308C2.46167 16.7841 2.16083 15.8391 2.0175 14.6475C1.875 13.475 1.875 11.9708 1.875 10.0433V9.95663C1.875 8.02913 1.875 6.52496 2.01667 5.35329C2.16083 4.15996 2.46167 3.21579 3.13333 2.46913C3.815 1.71246 4.68917 1.36579 5.7925 1.20079C6.86 1.04163 8.22417 1.04163 9.94833 1.04163ZM5.9775 2.43746C5.03833 2.57746 4.48 2.84163 4.0625 3.30496C3.6375 3.77829 3.3875 4.42663 3.2575 5.50329C3.12583 6.59163 3.125 8.01996 3.125 9.99996C3.125 11.98 3.12583 13.4083 3.25833 14.4966C3.38833 15.5733 3.63667 16.2216 4.0625 16.695C4.48 17.1583 5.03833 17.4225 5.9775 17.5625C6.94167 17.7066 8.2125 17.7083 10 17.7083C11.7875 17.7083 13.0583 17.7066 14.0225 17.5625C14.9617 17.4225 15.52 17.1583 15.9367 16.695C16.3633 16.2216 16.6117 15.5733 16.7425 14.4966C16.8742 13.4083 16.875 11.98 16.875 9.99996C16.875 8.01996 16.8742 6.59163 16.7417 5.50329C16.6117 4.42663 16.3633 3.77829 15.9375 3.30496C15.52 2.84163 14.9617 2.57746 14.0225 2.43746C13.0583 2.29329 11.7875 2.29163 10 2.29163C8.2125 2.29163 6.94167 2.29329 5.9775 2.43746ZM7.43 4.37496H12.57C12.8867 4.37496 13.1617 4.37496 13.4017 4.43913C13.7195 4.52424 14.0093 4.69148 14.242 4.92406C14.4748 5.15664 14.6422 5.44636 14.7275 5.76413C14.7925 6.00579 14.7925 6.27913 14.7917 6.59746V6.73663C14.7917 7.05329 14.7917 7.32829 14.7275 7.56829C14.6424 7.88611 14.4751 8.17594 14.2426 8.40866C14.01 8.64139 13.7203 8.80881 13.4025 8.89413C13.1608 8.95913 12.8875 8.95913 12.5692 8.95829H7.43083C7.11417 8.95829 6.83917 8.95829 6.59917 8.89413C6.28135 8.80901 5.99152 8.64177 5.7588 8.40919C5.52607 8.17661 5.35865 7.88689 5.27333 7.56913C5.20833 7.32746 5.20917 7.05413 5.20917 6.73579V6.59663C5.20917 6.27996 5.20917 6.00496 5.27333 5.76496C5.35845 5.44714 5.52569 5.15731 5.75827 4.92459C5.99085 4.69187 6.28057 4.52444 6.59833 4.43913C6.84 4.37413 7.11333 4.37496 7.43167 4.37496M7.5 5.62496C7.0725 5.62496 6.98083 5.62996 6.92167 5.64663C6.81578 5.67504 6.71923 5.73081 6.6417 5.80833C6.56418 5.88585 6.50841 5.9824 6.48 6.08829C6.46333 6.14746 6.45833 6.23829 6.45833 6.66663C6.45833 7.09413 6.46333 7.18579 6.48 7.24496C6.50841 7.35085 6.56418 7.4474 6.6417 7.52492C6.71923 7.60245 6.81578 7.65821 6.92167 7.68663C6.98083 7.70329 7.07167 7.70829 7.5 7.70829H12.5C12.9275 7.70829 13.0192 7.70329 13.0783 7.68663C13.1842 7.65821 13.2808 7.60245 13.3583 7.52492C13.4358 7.4474 13.4916 7.35085 13.52 7.24496C13.5367 7.18579 13.5417 7.09496 13.5417 6.66663C13.5417 6.23913 13.5367 6.14746 13.52 6.08829C13.4916 5.9824 13.4358 5.88585 13.3583 5.80833C13.2808 5.73081 13.1842 5.67504 13.0783 5.64663C13.0192 5.62996 12.9283 5.62496 12.5 5.62496H7.5Z" fill="#101011"/>
<path d="M7.49998 10.8333C7.49998 11.0543 7.41218 11.2663 7.2559 11.4226C7.09962 11.5789 6.88766 11.6667 6.66665 11.6667C6.44563 11.6667 6.23367 11.5789 6.07739 11.4226C5.92111 11.2663 5.83331 11.0543 5.83331 10.8333C5.83331 10.6123 5.92111 10.4004 6.07739 10.2441C6.23367 10.0878 6.44563 10 6.66665 10C6.88766 10 7.09962 10.0878 7.2559 10.2441C7.41218 10.4004 7.49998 10.6123 7.49998 10.8333ZM7.49998 14.1667C7.49998 14.3877 7.41218 14.5996 7.2559 14.7559C7.09962 14.9122 6.88766 15 6.66665 15C6.44563 15 6.23367 14.9122 6.07739 14.7559C5.92111 14.5996 5.83331 14.3877 5.83331 14.1667C5.83331 13.9457 5.92111 13.7337 6.07739 13.5774C6.23367 13.4211 6.44563 13.3333 6.66665 13.3333C6.88766 13.3333 7.09962 13.4211 7.2559 13.5774C7.41218 13.7337 7.49998 13.9457 7.49998 14.1667ZM10.8333 10.8333C10.8333 11.0543 10.7455 11.2663 10.5892 11.4226C10.433 11.5789 10.221 11.6667 9.99998 11.6667C9.77897 11.6667 9.567 11.5789 9.41072 11.4226C9.25444 11.2663 9.16665 11.0543 9.16665 10.8333C9.16665 10.6123 9.25444 10.4004 9.41072 10.2441C9.567 10.0878 9.77897 10 9.99998 10C10.221 10 10.433 10.0878 10.5892 10.2441C10.7455 10.4004 10.8333 10.6123 10.8333 10.8333ZM10.8333 14.1667C10.8333 14.3877 10.7455 14.5996 10.5892 14.7559C10.433 14.9122 10.221 15 9.99998 15C9.77897 15 9.567 14.9122 9.41072 14.7559C9.25444 14.5996 9.16665 14.3877 9.16665 14.1667C9.16665 13.9457 9.25444 13.7337 9.41072 13.5774C9.567 13.4211 9.77897 13.3333 9.99998 13.3333C10.221 13.3333 10.433 13.4211 10.5892 13.5774C10.7455 13.7337 10.8333 13.9457 10.8333 14.1667ZM14.1666 10.8333C14.1666 11.0543 14.0788 11.2663 13.9226 11.4226C13.7663 11.5789 13.5543 11.6667 13.3333 11.6667C13.1123 11.6667 12.9003 11.5789 12.7441 11.4226C12.5878 11.2663 12.5 11.0543 12.5 10.8333C12.5 10.6123 12.5878 10.4004 12.7441 10.2441C12.9003 10.0878 13.1123 10 13.3333 10C13.5543 10 13.7663 10.0878 13.9226 10.2441C14.0788 10.4004 14.1666 10.6123 14.1666 10.8333ZM14.1666 14.1667C14.1666 14.3877 14.0788 14.5996 13.9226 14.7559C13.7663 14.9122 13.5543 15 13.3333 15C13.1123 15 12.9003 14.9122 12.7441 14.7559C12.5878 14.5996 12.5 14.3877 12.5 14.1667C12.5 13.9457 12.5878 13.7337 12.7441 13.5774C12.9003 13.4211 13.1123 13.3333 13.3333 13.3333C13.5543 13.3333 13.7663 13.4211 13.9226 13.5774C14.0788 13.7337 14.1666 13.9457 14.1666 14.1667Z" fill="#101011"/>
</svg>
