<svg width="23" height="23" viewBox="0 0 23 23" fill="none" xmlns="http://www.w3.org/2000/svg">
<path d="M16.0833 13.1176C16.3264 13.1176 16.5596 13.0211 16.7315 12.8491C16.9034 12.6772 17 12.4441 17 12.201C17 11.9579 16.9034 11.7247 16.7315 11.5528C16.5596 11.3809 16.3264 11.2843 16.0833 11.2843C15.8402 11.2843 15.6071 11.3809 15.4352 11.5528C15.2632 11.7247 15.1667 11.9579 15.1667 12.201C15.1667 12.4441 15.2632 12.6772 15.4352 12.8491C15.6071 13.0211 15.8402 13.1176 16.0833 13.1176ZM16.0833 16.7843C16.3264 16.7843 16.5596 16.6877 16.7315 16.5158C16.9034 16.3439 17 16.1108 17 15.8676C17 15.6245 16.9034 15.3914 16.7315 15.2195C16.5596 15.0475 16.3264 14.951 16.0833 14.951C15.8402 14.951 15.6071 15.0475 15.4352 15.2195C15.2632 15.3914 15.1667 15.6245 15.1667 15.8676C15.1667 16.1108 15.2632 16.3439 15.4352 16.5158C15.6071 16.6877 15.8402 16.7843 16.0833 16.7843ZM12.4167 12.201C12.4167 12.4441 12.3201 12.6772 12.1482 12.8491C11.9763 13.0211 11.7431 13.1176 11.5 13.1176C11.2569 13.1176 11.0237 13.0211 10.8518 12.8491C10.6799 12.6772 10.5833 12.4441 10.5833 12.201C10.5833 11.9579 10.6799 11.7247 10.8518 11.5528C11.0237 11.3809 11.2569 11.2843 11.5 11.2843C11.7431 11.2843 11.9763 11.3809 12.1482 11.5528C12.3201 11.7247 12.4167 11.9579 12.4167 12.201ZM12.4167 15.8676C12.4167 16.1108 12.3201 16.3439 12.1482 16.5158C11.9763 16.6877 11.7431 16.7843 11.5 16.7843C11.2569 16.7843 11.0237 16.6877 10.8518 16.5158C10.6799 16.3439 10.5833 16.1108 10.5833 15.8676C10.5833 15.6245 10.6799 15.3914 10.8518 15.2195C11.0237 15.0475 11.2569 14.951 11.5 14.951C11.7431 14.951 11.9763 15.0475 12.1482 15.2195C12.3201 15.3914 12.4167 15.6245 12.4167 15.8676ZM6.91667 13.1176C7.15978 13.1176 7.39294 13.0211 7.56485 12.8491C7.73676 12.6772 7.83333 12.4441 7.83333 12.201C7.83333 11.9579 7.73676 11.7247 7.56485 11.5528C7.39294 11.3809 7.15978 11.2843 6.91667 11.2843C6.67355 11.2843 6.44039 11.3809 6.26849 11.5528C6.09658 11.7247 6 11.9579 6 12.201C6 12.4441 6.09658 12.6772 6.26849 12.8491C6.44039 13.0211 6.67355 13.1176 6.91667 13.1176ZM6.91667 16.7843C7.15978 16.7843 7.39294 16.6877 7.56485 16.5158C7.73676 16.3439 7.83333 16.1108 7.83333 15.8676C7.83333 15.6245 7.73676 15.3914 7.56485 15.2195C7.39294 15.0475 7.15978 14.951 6.91667 14.951C6.67355 14.951 6.44039 15.0475 6.26849 15.2195C6.09658 15.3914 6 15.6245 6 15.8676C6 16.1108 6.09658 16.3439 6.26849 16.5158C6.44039 16.6877 6.67355 16.7843 6.91667 16.7843Z" fill="#111111"/>
<path fill-rule="evenodd" clip-rule="evenodd" d="M6.9164 1.88843C7.09874 1.88843 7.27361 1.96086 7.40254 2.08979C7.53147 2.21872 7.6039 2.39359 7.6039 2.57593V3.27534C8.21073 3.26343 8.87898 3.26343 9.61415 3.26343H13.3844C14.1205 3.26343 14.7887 3.26343 15.3956 3.27534V2.57593C15.3956 2.39359 15.468 2.21872 15.5969 2.08979C15.7259 1.96086 15.9007 1.88843 16.0831 1.88843C16.2654 1.88843 16.4403 1.96086 16.5692 2.08979C16.6981 2.21872 16.7706 2.39359 16.7706 2.57593V3.33401C17.0089 3.35234 17.2347 3.37557 17.448 3.40368C18.5223 3.54851 19.3922 3.85284 20.0788 4.53851C20.7645 5.22509 21.0688 6.09501 21.2137 7.16934C21.3539 8.21434 21.3539 9.54809 21.3539 11.2329V13.1689C21.3539 14.8538 21.3539 16.1884 21.2137 17.2325C21.0688 18.3068 20.7645 19.1768 20.0788 19.8633C19.3922 20.549 18.5223 20.8533 17.448 20.9982C16.403 21.1384 15.0692 21.1384 13.3844 21.1384H9.61598C7.93115 21.1384 6.59648 21.1384 5.5524 20.9982C4.47807 20.8533 3.60815 20.549 2.92157 19.8633C2.2359 19.1768 1.93157 18.3068 1.78673 17.2325C1.64648 16.1875 1.64648 14.8538 1.64648 13.1689V11.2329C1.64648 9.54809 1.64648 8.21343 1.78673 7.16934C1.93157 6.09501 2.2359 5.22509 2.92157 4.53851C3.60815 3.85284 4.47807 3.54851 5.5524 3.40368C5.76629 3.37557 5.9921 3.35234 6.22982 3.33401V2.57593C6.22982 2.39375 6.30212 2.21902 6.43086 2.09012C6.55959 1.96121 6.73422 1.88867 6.9164 1.88843ZM5.7339 4.76676C4.81265 4.89051 4.28098 5.12334 3.89323 5.51109C3.50548 5.89884 3.27265 6.43051 3.1489 7.35176C3.12812 7.50759 3.1104 7.67229 3.09573 7.84584H19.9037C19.8891 7.67229 19.8713 7.50729 19.8506 7.35084C19.7268 6.42959 19.494 5.89793 19.1062 5.51018C18.7185 5.12243 18.1868 4.88959 17.2647 4.76584C16.3232 4.63934 15.0812 4.63751 13.3331 4.63751H9.6664C7.91832 4.63751 6.67715 4.64026 5.7339 4.76676ZM3.02057 11.2843C3.02057 10.5014 3.02057 9.82034 3.03248 9.22176H19.967C19.9789 9.82034 19.9789 10.5014 19.9789 11.2843V13.1176C19.9789 14.8657 19.9771 16.1078 19.8506 17.0501C19.7268 17.9713 19.494 18.503 19.1062 18.8908C18.7185 19.2785 18.1868 19.5113 17.2647 19.6351C16.3232 19.7616 15.0812 19.7634 13.3331 19.7634H9.6664C7.91832 19.7634 6.67715 19.7616 5.7339 19.6351C4.81265 19.5113 4.28098 19.2785 3.89323 18.8908C3.50548 18.503 3.27265 17.9713 3.1489 17.0492C3.0224 16.1078 3.02057 14.8657 3.02057 13.1176V11.2843Z" fill="#111111"/>
</svg>
