<svg width="23" height="23" viewBox="0 0 23 23" fill="none" xmlns="http://www.w3.org/2000/svg">
<g clip-path="url(#clip0_1212_15618)">
<path d="M1.1875 13.8969C1.36984 13.8969 1.5447 13.9693 1.67364 14.0982C1.80257 14.2271 1.875 14.402 1.875 14.5844V18.0219C1.875 18.3865 2.01987 18.7363 2.27773 18.9941C2.53559 19.252 2.88533 19.3969 3.25 19.3969H19.75C20.1147 19.3969 20.4644 19.252 20.7223 18.9941C20.9801 18.7363 21.125 18.3865 21.125 18.0219V14.5844C21.125 14.402 21.1974 14.2271 21.3264 14.0982C21.4553 13.9693 21.6302 13.8969 21.8125 13.8969C21.9948 13.8969 22.1697 13.9693 22.2986 14.0982C22.4276 14.2271 22.5 14.402 22.5 14.5844V18.0219C22.5 18.7512 22.2103 19.4507 21.6945 19.9664C21.1788 20.4821 20.4793 20.7719 19.75 20.7719H3.25C2.52065 20.7719 1.82118 20.4821 1.30546 19.9664C0.789731 19.4507 0.5 18.7512 0.5 18.0219V14.5844C0.5 14.402 0.572433 14.2271 0.701364 14.0982C0.830295 13.9693 1.00516 13.8969 1.1875 13.8969Z" fill="#111111"/>
<path d="M11.0141 16.5836C11.078 16.6476 11.1538 16.6984 11.2374 16.733C11.3209 16.7677 11.4104 16.7855 11.5009 16.7855C11.5913 16.7855 11.6808 16.7677 11.7644 16.733C11.8479 16.6984 11.9238 16.6476 11.9876 16.5836L16.1126 12.4586C16.2417 12.3295 16.3142 12.1544 16.3142 11.9718C16.3142 11.7892 16.2417 11.6141 16.1126 11.4851C15.9835 11.356 15.8084 11.2834 15.6259 11.2834C15.4433 11.2834 15.2682 11.356 15.1391 11.4851L12.1884 14.4372V2.3468C12.1884 2.16447 12.1159 1.9896 11.987 1.86067C11.8581 1.73173 11.6832 1.6593 11.5009 1.6593C11.3185 1.6593 11.1437 1.73173 11.0147 1.86067C10.8858 1.9896 10.8134 2.16447 10.8134 2.3468V14.4372L7.86262 11.4851C7.73352 11.356 7.55844 11.2834 7.37587 11.2834C7.1933 11.2834 7.01821 11.356 6.88912 11.4851C6.76002 11.6141 6.6875 11.7892 6.6875 11.9718C6.6875 12.1544 6.76002 12.3295 6.88912 12.4586L11.0141 16.5836Z" fill="#111111"/>
</g>
<defs>
<clipPath id="clip0_1212_15618">
<rect width="22" height="22" fill="white" transform="translate(0.5 0.284302)"/>
</clipPath>
</defs>
</svg>
