<svg width="21" height="20" viewBox="0 0 21 20" fill="none" xmlns="http://www.w3.org/2000/svg">
<path fill-rule="evenodd" clip-rule="evenodd" d="M11.0167 2.30163C10.8447 2.29162 10.6723 2.28828 10.5 2.29163C8.51835 2.29163 7.09502 2.29329 6.01169 2.43829C4.94585 2.58163 4.30335 2.85496 3.82835 3.32913C3.35419 3.80413 3.08169 4.44579 2.93835 5.51163C2.79335 6.59496 2.79169 8.01829 2.79169 9.99996C2.79169 11.9816 2.79335 13.405 2.93835 14.4883C3.08169 15.5541 3.35502 16.1966 3.82919 16.6716C4.25669 17.0991 4.82085 17.3625 5.70835 17.515V17.4566C5.70835 16.7075 5.70835 16.0833 5.77502 15.5883C5.84502 15.065 6.00002 14.5925 6.37919 14.2133C6.75919 13.8333 7.23169 13.6783 7.75419 13.6083C8.25002 13.5416 8.87502 13.5416 9.62335 13.5416H11.3767C12.1259 13.5416 12.75 13.5416 13.245 13.6083C13.7684 13.6783 14.2409 13.8333 14.62 14.2133C15 14.5925 15.155 15.065 15.225 15.5883C15.2917 16.0833 15.2917 16.7075 15.2917 17.4566V17.515C16.1792 17.3625 16.7434 17.0983 17.1709 16.6708C17.6459 16.1958 17.9184 15.5541 18.0617 14.4883C18.2067 13.405 18.2084 11.9816 18.2084 9.99996C18.2084 9.70579 18.2084 9.59413 18.1984 9.48329C18.1473 8.9298 17.9296 8.40479 17.5742 7.97746C17.4573 7.84573 17.3353 7.71869 17.2084 7.59663L12.9034 3.29163C12.7813 3.16442 12.6543 3.0421 12.5225 2.92496C12.0953 2.56996 11.5706 2.35264 11.0175 2.30163M14.0425 17.65V17.5C14.0425 16.6966 14.0409 16.1566 13.9867 15.7541C13.935 15.37 13.8459 15.205 13.7367 15.0966C13.6275 14.9883 13.4642 14.8991 13.08 14.8466C12.6775 14.7933 12.1375 14.7916 11.3342 14.7916H9.66752C8.86419 14.7916 8.32419 14.7933 7.92169 14.8475C7.53752 14.8991 7.37252 14.9883 7.26419 15.0975C7.15585 15.2066 7.06669 15.37 7.01419 15.7541C6.96085 16.1566 6.95919 16.6966 6.95919 17.5V17.65C7.89752 17.7083 9.04919 17.7083 10.5009 17.7083C11.9525 17.7083 13.1042 17.7083 14.0425 17.65ZM10.5259 1.04163C10.7859 1.04163 10.9534 1.04163 11.1259 1.05663C11.9347 1.13011 12.7021 1.44809 13.3259 1.96829C13.4592 2.07913 13.58 2.20079 13.7675 2.38829L13.7875 2.40746L18.1125 6.73246C18.2992 6.91996 18.4209 7.04079 18.5317 7.17413C19.0519 7.79789 19.3699 8.56524 19.4434 9.37413C19.4584 9.54663 19.4584 9.71413 19.4584 9.97413V10.0475C19.4584 11.9716 19.4584 13.4791 19.3 14.6558C19.1384 15.8591 18.8 16.8091 18.055 17.555C17.3092 18.3008 16.3592 18.6383 15.155 18.8C13.9792 18.9583 12.4717 18.9583 10.5475 18.9583H10.4525C8.52835 18.9583 7.02085 18.9583 5.84419 18.8C4.64085 18.6383 3.69085 18.3 2.94502 17.555C2.19919 16.8091 1.86169 15.8591 1.70002 14.655C1.54169 13.4791 1.54169 11.9716 1.54169 10.0475V9.95246C1.54169 8.02829 1.54169 6.52079 1.70002 5.34413C1.86169 4.14079 2.20002 3.19079 2.94502 2.44496C3.69085 1.69913 4.64085 1.36163 5.84502 1.19996C7.02085 1.04163 8.52835 1.04163 10.4525 1.04163H10.5259ZM5.70835 6.66663C5.70835 6.50087 5.7742 6.34189 5.89141 6.22468C6.00862 6.10747 6.16759 6.04163 6.33335 6.04163H11.3334C11.4991 6.04163 11.6581 6.10747 11.7753 6.22468C11.8925 6.34189 11.9584 6.50087 11.9584 6.66663C11.9584 6.83239 11.8925 6.99136 11.7753 7.10857C11.6581 7.22578 11.4991 7.29163 11.3334 7.29163H6.33335C6.16759 7.29163 6.00862 7.22578 5.89141 7.10857C5.7742 6.99136 5.70835 6.83239 5.70835 6.66663Z" fill="white"/>
</svg>
