<svg width="24" height="24" viewBox="0 0 24 24" fill="none" xmlns="http://www.w3.org/2000/svg">
<path d="M12 22.002C17.524 22.002 22.002 17.524 22.002 12.001C22.002 6.47699 17.524 1.99899 12 1.99899C6.47605 1.99899 1.99805 6.47699 1.99805 12.001C1.99805 17.524 6.47605 22.002 12 22.002ZM12 20.502C10.8727 20.5193 9.75319 20.3122 8.70665 19.8927C7.6601 19.4733 6.70744 18.8498 5.90411 18.0587C5.10078 17.2676 4.46282 16.3246 4.02736 15.2847C3.5919 14.2447 3.36765 13.1285 3.36765 12.001C3.36765 10.8735 3.5919 9.75731 4.02736 8.71732C4.46282 7.67734 5.10078 6.73435 5.90411 5.94324C6.70744 5.15214 7.6601 4.52872 8.70665 4.10926C9.75319 3.68981 10.8727 3.4827 12 3.49999C14.2388 3.52427 16.3776 4.43066 17.9522 6.02236C19.5267 7.61406 20.4098 9.76259 20.4098 12.0015C20.4098 14.2404 19.5267 16.3889 17.9522 17.9806C16.3776 19.5723 14.2388 20.4777 12 20.502Z" fill="#B9B9B9"/>
</svg>
