<svg width="20" height="21" viewBox="0 0 20 21" fill="none" xmlns="http://www.w3.org/2000/svg">
<path d="M3.125 16.75H16.875C17.0408 16.75 17.1997 16.8158 17.3169 16.9331C17.4342 17.0503 17.5 17.2092 17.5 17.375C17.5 17.5408 17.4342 17.6997 17.3169 17.8169C17.1997 17.9342 17.0408 18 16.875 18H3.125C2.95924 18 2.80027 17.9342 2.68306 17.8169C2.56585 17.6997 2.5 17.5408 2.5 17.375C2.5 17.2092 2.56585 17.0503 2.68306 16.9331C2.80027 16.8158 2.95924 16.75 3.125 16.75ZM10.625 11.795L15.24 7.17875L16.1238 8.0625L9.9375 14.25L3.75 8.0625L4.63375 7.17875L9.375 11.92V3H10.625V11.795Z" fill="white"/>
</svg>
