<svg width="18" height="18" viewBox="0 0 18 18" fill="none" xmlns="http://www.w3.org/2000/svg">
<path d="M9 15.75C10.335 15.75 11.6401 15.3541 12.7501 14.6124C13.8601 13.8707 14.7253 12.8165 15.2362 11.5831C15.7471 10.3497 15.8808 8.99252 15.6203 7.68314C15.3599 6.37377 14.717 5.17104 13.773 4.22703C12.829 3.28303 11.6262 2.64015 10.3169 2.3797C9.00749 2.11925 7.65029 2.25292 6.41689 2.76382C5.18349 3.27471 4.12928 4.13987 3.38758 5.2499C2.64588 6.35994 2.25 7.66498 2.25 9C2.25 10.116 2.52 11.1675 3 12.0953L2.25 15.75L5.90475 15C6.83175 15.4793 7.88475 15.75 9 15.75Z" stroke="#111111" stroke-linecap="round" stroke-linejoin="round"/>
</svg>
