<svg width="21" height="20" viewBox="0 0 21 20" fill="none" xmlns="http://www.w3.org/2000/svg">
<path d="M14.3417 17.5C13.7894 17.5 13.3208 17.3069 12.9358 16.9208C12.5514 16.5342 12.3592 16.0647 12.3592 15.5125C12.3592 15.4292 12.3958 15.2189 12.4692 14.8817L6.47167 11.3208C6.29167 11.5286 6.07139 11.6917 5.81083 11.81C5.55028 11.9283 5.27056 11.9875 4.97167 11.9875C4.42389 11.9875 3.95833 11.7925 3.575 11.4025C3.19167 11.0125 3 10.545 3 10C3 9.455 3.19167 8.9875 3.575 8.5975C3.95833 8.2075 4.42389 8.0125 4.97167 8.0125C5.27 8.0125 5.54972 8.07167 5.81083 8.19C6.07194 8.30833 6.29222 8.47167 6.47167 8.68L12.47 5.13417C12.4311 5.02639 12.4031 4.91944 12.3858 4.81333C12.3681 4.70667 12.3592 4.59778 12.3592 4.48667C12.3592 3.935 12.5528 3.46583 12.94 3.07917C13.3272 2.69306 13.7972 2.5 14.35 2.5C14.9028 2.5 15.3717 2.69361 15.7567 3.08083C16.1417 3.46806 16.3339 3.93806 16.3333 4.49083C16.3328 5.04361 16.1397 5.5125 15.7542 5.8975C15.3686 6.2825 14.8992 6.47472 14.3458 6.47417C14.0447 6.47417 13.7669 6.4125 13.5125 6.28917C13.2581 6.16583 13.0414 6 12.8625 5.79167L6.86333 9.3525C6.90222 9.46028 6.93028 9.5675 6.9475 9.67417C6.96528 9.78028 6.97417 9.88889 6.97417 10C6.97417 10.1111 6.96528 10.2197 6.9475 10.3258C6.92972 10.4319 6.90194 10.5392 6.86417 10.6475L12.8625 14.2083C13.0419 14 13.2586 13.8342 13.5125 13.7108C13.7669 13.5875 14.0447 13.5258 14.3458 13.5258C14.8981 13.5258 15.3675 13.7192 15.7542 14.1058C16.1403 14.4936 16.3333 14.9639 16.3333 15.5167C16.3333 16.0694 16.1397 16.5383 15.7525 16.9233C15.3653 17.3083 14.8944 17.5006 14.3417 17.5Z" fill="#111111"/>
</svg>
