<svg width="16" height="17" viewBox="0 0 16 17" fill="none" xmlns="http://www.w3.org/2000/svg">
<path fill-rule="evenodd" clip-rule="evenodd" d="M8.00004 15.1667C4.31804 15.1667 1.33337 12.182 1.33337 8.5C1.33337 4.818 4.31804 1.83333 8.00004 1.83333C11.682 1.83333 14.6667 4.818 14.6667 8.5C14.6667 12.182 11.682 15.1667 8.00004 15.1667ZM8.00004 13.8333C9.41453 13.8333 10.7711 13.2714 11.7713 12.2712C12.7715 11.271 13.3334 9.91449 13.3334 8.5C13.3334 7.08551 12.7715 5.72896 11.7713 4.72876C10.7711 3.72857 9.41453 3.16667 8.00004 3.16667C6.58555 3.16667 5.229 3.72857 4.2288 4.72876C3.22861 5.72896 2.66671 7.08551 2.66671 8.5C2.66671 9.91449 3.22861 11.271 4.2288 12.2712C5.229 13.2714 6.58555 13.8333 8.00004 13.8333ZM7.33337 11.1667H8.66671V12.5H7.33337V11.1667ZM7.33337 9.83867C7.33337 9.83867 8.66671 9.83333 8.66671 9.83867C8.66671 9.17067 10.6667 8.5 10.6667 7.16667C10.6667 5.69333 9.48471 4.5 8.00604 4.5C7.65534 4.49921 7.30794 4.5676 6.98371 4.70126C6.65948 4.83492 6.3648 5.03122 6.11654 5.27892C5.86828 5.52663 5.67132 5.82086 5.53693 6.14479C5.40255 6.46872 5.33337 6.81597 5.33337 7.16667H6.66671C6.66671 6.43333 7.26671 5.83333 8.00004 5.83333C8.73337 5.83333 9.33337 6.43333 9.33337 7.16667C9.33337 7.76667 7.33337 8.74467 7.33337 9.83867Z" fill="#101011"/>
</svg>
