<svg width="26" height="27" viewBox="0 0 26 27" fill="none" xmlns="http://www.w3.org/2000/svg">
<path d="M13 8.47028C12.076 8.47028 11.1727 8.74428 10.4044 9.25763C9.63616 9.77098 9.03735 10.5006 8.68375 11.3543C8.33015 12.208 8.23763 13.1473 8.41789 14.0536C8.59816 14.9598 9.04311 15.7923 9.69649 16.4457C10.3499 17.099 11.1823 17.544 12.0886 17.7243C12.9948 17.9045 13.9342 17.812 14.7878 17.4584C15.6415 17.1048 16.3712 16.506 16.8845 15.7377C17.3979 14.9694 17.6719 14.0662 17.6719 13.1422C17.6703 11.9036 17.1775 10.7162 16.3017 9.84042C15.4259 8.96462 14.2386 8.47189 13 8.47028ZM13 16.5953C12.317 16.5953 11.6494 16.3928 11.0815 16.0133C10.5137 15.6339 10.0711 15.0946 9.80973 14.4636C9.54837 13.8326 9.47999 13.1383 9.61323 12.4685C9.74647 11.7986 10.0753 11.1834 10.5583 10.7004C11.0412 10.2175 11.6565 9.88862 12.3263 9.75538C12.9962 9.62214 13.6905 9.69052 14.3215 9.95188C14.9524 10.2132 15.4917 10.6558 15.8712 11.2237C16.2506 11.7916 16.4531 12.4592 16.4531 13.1422C16.4531 14.058 16.0893 14.9363 15.4417 15.5839C14.7941 16.2315 13.9158 16.5953 13 16.5953ZM17.875 2.78278H8.125C6.67095 2.78439 5.27691 3.36272 4.24874 4.39089C3.22057 5.41906 2.64224 6.8131 2.64062 8.26715V18.0172C2.64224 19.4712 3.22057 20.8652 4.24874 21.8934C5.27691 22.9216 6.67095 23.4999 8.125 23.5015H17.875C19.3291 23.4999 20.7231 22.9216 21.7513 21.8934C22.7794 20.8652 23.3578 19.4712 23.3594 18.0172V8.26715C23.3578 6.8131 22.7794 5.41906 21.7513 4.39089C20.7231 3.36272 19.3291 2.78439 17.875 2.78278ZM22.1406 18.0172C22.1406 19.1485 21.6912 20.2334 20.8913 21.0334C20.0913 21.8334 19.0063 22.2828 17.875 22.2828H8.125C6.99369 22.2828 5.90871 21.8334 5.10875 21.0334C4.30879 20.2334 3.85938 19.1485 3.85938 18.0172V8.26715C3.85938 7.13584 4.30879 6.05086 5.10875 5.2509C5.90871 4.45094 6.99369 4.00153 8.125 4.00153H17.875C19.0063 4.00153 20.0913 4.45094 20.8913 5.2509C21.6912 6.05086 22.1406 7.13584 22.1406 8.26715V18.0172ZM19.2969 7.8609C19.2969 8.06177 19.2373 8.25813 19.1257 8.42515C19.0141 8.59217 18.8555 8.72235 18.6699 8.79922C18.4843 8.87609 18.2801 8.8962 18.0831 8.85701C17.8861 8.81782 17.7051 8.72109 17.5631 8.57906C17.4211 8.43702 17.3243 8.25605 17.2851 8.05904C17.246 7.86203 17.2661 7.65782 17.3429 7.47224C17.4198 7.28666 17.55 7.12804 17.717 7.01644C17.884 6.90484 18.0804 6.84528 18.2812 6.84528C18.5506 6.84528 18.8089 6.95228 18.9994 7.14275C19.1899 7.33321 19.2969 7.59154 19.2969 7.8609Z" fill="#111111"/>
</svg>
