<svg width="20" height="20" viewBox="0 0 20 20" fill="none" xmlns="http://www.w3.org/2000/svg">
<path d="M9.99996 18.3333C5.39746 18.3333 1.66663 14.6025 1.66663 10C1.66663 5.39751 5.39746 1.66667 9.99996 1.66667C14.6025 1.66667 18.3333 5.39751 18.3333 10C18.3333 14.6025 14.6025 18.3333 9.99996 18.3333ZM9.99996 13.3333C10.884 13.3333 11.7319 12.9821 12.357 12.357C12.9821 11.7319 13.3333 10.8841 13.3333 10C13.3333 9.11595 12.9821 8.2681 12.357 7.64298C11.7319 7.01786 10.884 6.66667 9.99996 6.66667C9.1159 6.66667 8.26806 7.01786 7.64294 7.64298C7.01782 8.2681 6.66663 9.11595 6.66663 10C6.66663 10.8841 7.01782 11.7319 7.64294 12.357C8.26806 12.9821 9.1159 13.3333 9.99996 13.3333Z" fill="#101011"/>
</svg>
