<svg width="18" height="18" viewBox="0 0 18 18" fill="none" xmlns="http://www.w3.org/2000/svg">
<path d="M9.6749 8.9973L14.7401 3.92715C14.8295 3.83734 14.8796 3.71579 14.8795 3.5891C14.8794 3.46242 14.8291 3.34093 14.7397 3.25125C14.5606 3.07305 14.2451 3.07215 14.0642 3.25215L9.00035 8.3223L3.9347 3.2508C3.7547 3.07305 3.43925 3.07395 3.26015 3.2517C3.2157 3.29597 3.18051 3.34866 3.15664 3.40668C3.13276 3.46471 3.12068 3.5269 3.1211 3.58965C3.1211 3.71745 3.1706 3.83715 3.26015 3.9258L8.32535 8.99685L3.2606 14.0683C3.17123 14.1583 3.12118 14.28 3.12143 14.4068C3.12168 14.5336 3.17222 14.6551 3.26195 14.7447C3.3488 14.8306 3.47165 14.8801 3.59855 14.8801H3.60125C3.7286 14.8797 3.85145 14.8297 3.9365 14.7429L9.00035 9.67275L14.066 14.7442C14.1556 14.8333 14.2753 14.8828 14.4022 14.8828C14.4649 14.883 14.5271 14.8708 14.5851 14.8469C14.6431 14.8229 14.6958 14.7878 14.7402 14.7434C14.7845 14.699 14.8197 14.6463 14.8436 14.5883C14.8676 14.5303 14.8798 14.4681 14.8796 14.4054C14.8796 14.278 14.8301 14.1579 14.7401 14.0692L9.6749 8.9973Z" fill="#101011"/>
</svg>
