<svg width="23" height="20" viewBox="0 0 23 20" fill="none" xmlns="http://www.w3.org/2000/svg">
<path d="M4.33736 8.5L1.71236 11M1.71236 11L4.33736 13.5M1.71236 11L15.45 11" stroke="#111111" stroke-linecap="round" stroke-linejoin="round"/>
<path d="M21.2083 15.625H20.1667V7.53333L13.9167 2.24479L7.66667 7.53333V15.625H6.625V7.29166C6.62503 7.21601 6.64153 7.14127 6.67337 7.07264C6.70521 7.00401 6.75162 6.94314 6.80938 6.89427L13.5802 1.1651C13.6743 1.08551 13.7935 1.04184 13.9167 1.04184C14.0399 1.04184 14.1591 1.08551 14.2531 1.1651L21.024 6.89427C21.0817 6.94314 21.1281 7.00401 21.16 7.07264C21.1918 7.14127 21.2083 7.21601 21.2083 7.29166V15.625Z" fill="#111111"/>
</svg>
