<svg width="20" height="20" viewBox="0 0 20 20" fill="none" xmlns="http://www.w3.org/2000/svg">
<path d="M10.8333 12.5L13.3333 10M13.3333 10L10.8333 7.5M13.3333 10H2.91663" stroke="#111111" stroke-linecap="round" stroke-linejoin="round"/>
<path d="M18.9583 15.625H17.9167V7.53333L11.6667 2.24479L5.41667 7.53333V15.625H4.375V7.29166C4.37503 7.21601 4.39153 7.14127 4.42337 7.07264C4.45521 7.00401 4.50162 6.94314 4.55938 6.89427L11.3302 1.1651C11.4243 1.08551 11.5435 1.04184 11.6667 1.04184C11.7899 1.04184 11.9091 1.08551 12.0031 1.1651L18.774 6.89427C18.8317 6.94314 18.8781 7.00401 18.91 7.07264C18.9418 7.14127 18.9583 7.21601 18.9583 7.29166V15.625Z" fill="#111111"/>
</svg>
