<svg width="28" height="29" viewBox="0 0 28 29" fill="none" xmlns="http://www.w3.org/2000/svg">
<path d="M5.83337 5.97549H21C21.9283 5.97549 22.8185 6.34424 23.4749 7.00062C24.1313 7.657 24.5 8.54724 24.5 9.47549V19.9755C24.5 20.9038 24.1313 21.794 23.4749 22.4504C22.8185 23.1067 21.9283 23.4755 21 23.4755H5.83337C4.90512 23.4755 4.01488 23.1067 3.3585 22.4504C2.70212 21.794 2.33337 20.9038 2.33337 19.9755V9.47549C2.33337 8.54724 2.70212 7.657 3.3585 7.00062C4.01488 6.34424 4.90512 5.97549 5.83337 5.97549ZM5.83337 7.14216C5.25004 7.14216 4.73671 7.34049 4.34004 7.69049L13.4167 13.5588L22.4934 7.69049C22.0967 7.34049 21.5834 7.14216 21 7.14216H5.83337ZM13.4167 14.9705L3.65171 8.63549C3.55837 8.89216 3.50004 9.18383 3.50004 9.47549V19.9755C3.50004 20.5943 3.74587 21.1878 4.18346 21.6254C4.62104 22.063 5.21454 22.3088 5.83337 22.3088H21C21.6189 22.3088 22.2124 22.063 22.65 21.6254C23.0875 21.1878 23.3334 20.5943 23.3334 19.9755V9.47549C23.3334 9.18383 23.275 8.89216 23.1817 8.63549L13.4167 14.9705Z" fill="#101011"/>
</svg>
