<svg width="20" height="20" viewBox="0 0 20 20" fill="none" xmlns="http://www.w3.org/2000/svg">
<path d="M10 18.335C14.6034 18.335 18.335 14.6033 18.335 10.0008C18.335 5.3975 14.6034 1.66583 10 1.66583C5.39671 1.66583 1.66504 5.3975 1.66504 10.0008C1.66504 14.6033 5.39671 18.335 10 18.335ZM10 17.085C9.06059 17.0994 8.12766 16.9268 7.25554 16.5773C6.38342 16.2277 5.58954 15.7082 4.92009 15.049C4.25065 14.3897 3.71901 13.6039 3.35613 12.7372C2.99325 11.8706 2.80638 10.9404 2.80638 10.0008C2.80638 9.06127 2.99325 8.1311 3.35613 7.26444C3.71901 6.39779 4.25065 5.61196 4.92009 4.95271C5.58954 4.29345 6.38342 3.77394 7.25554 3.42439C8.12766 3.07485 9.06059 2.90226 10 2.91667C11.8657 2.9369 13.648 3.69222 14.9601 5.01864C16.2723 6.34506 17.0082 8.1355 17.0082 10.0012C17.0082 11.867 16.2723 13.6574 14.9601 14.9839C13.648 16.3103 11.8657 17.0648 10 17.085Z" fill="#101011"/>
</svg>
