<svg width="16" height="16" viewBox="0 0 16 16" fill="none" xmlns="http://www.w3.org/2000/svg">
<path d="M7.33337 12.9833L4.00004 11.0667C3.78893 10.9444 3.62515 10.7833 3.50871 10.5833C3.39226 10.3833 3.33382 10.1611 3.33337 9.91666V6.08333C3.33337 5.83888 3.39182 5.61666 3.50871 5.41666C3.6256 5.21666 3.78937 5.05555 4.00004 4.93333L7.33337 3.01666C7.54449 2.89444 7.76671 2.83333 8.00004 2.83333C8.23337 2.83333 8.4556 2.89444 8.66671 3.01666L12 4.93333C12.2112 5.05555 12.3752 5.21666 12.492 5.41666C12.6089 5.61666 12.6672 5.83888 12.6667 6.08333V9.91666C12.6667 10.1611 12.6085 10.3833 12.492 10.5833C12.3756 10.7833 12.2116 10.9444 12 11.0667L8.66671 12.9833C8.4556 13.1056 8.23337 13.1667 8.00004 13.1667C7.76671 13.1667 7.54449 13.1056 7.33337 12.9833ZM7.33337 11.45V8.38333L4.66671 6.83333V9.91666L7.33337 11.45ZM8.66671 11.45L11.3334 9.91666V6.83333L8.66671 8.38333V11.45ZM2.00004 5.33333C1.81115 5.33333 1.65293 5.26933 1.52537 5.14133C1.39782 5.01333 1.33382 4.85511 1.33337 4.66666V2.66666C1.33337 2.29999 1.46404 1.98622 1.72537 1.72533C1.98671 1.46444 2.30049 1.33377 2.66671 1.33333H4.66671C4.8556 1.33333 5.01404 1.39733 5.14204 1.52533C5.27004 1.65333 5.33382 1.81155 5.33337 1.99999C5.33293 2.18844 5.26893 2.34688 5.14137 2.47533C5.01382 2.60377 4.8556 2.66755 4.66671 2.66666H2.66671V4.66666C2.66671 4.85555 2.60271 5.01399 2.47471 5.14199C2.34671 5.26999 2.18849 5.33377 2.00004 5.33333ZM2.66671 14.6667C2.30004 14.6667 1.98626 14.5362 1.72537 14.2753C1.46449 14.0144 1.33382 13.7004 1.33337 13.3333V11.3333C1.33337 11.1444 1.39737 10.9862 1.52537 10.8587C1.65337 10.7311 1.8116 10.6671 2.00004 10.6667C2.18849 10.6662 2.34693 10.7302 2.47537 10.8587C2.60382 10.9871 2.6676 11.1453 2.66671 11.3333V13.3333H4.66671C4.8556 13.3333 5.01404 13.3973 5.14204 13.5253C5.27004 13.6533 5.33382 13.8116 5.33337 14C5.33293 14.1884 5.26893 14.3469 5.14137 14.4753C5.01382 14.6038 4.8556 14.6676 4.66671 14.6667H2.66671ZM13.3334 14.6667H11.3334C11.1445 14.6667 10.9863 14.6027 10.8587 14.4747C10.7312 14.3467 10.6672 14.1884 10.6667 14C10.6663 13.8116 10.7303 13.6533 10.8587 13.5253C10.9872 13.3973 11.1454 13.3333 11.3334 13.3333H13.3334V11.3333C13.3334 11.1444 13.3974 10.9862 13.5254 10.8587C13.6534 10.7311 13.8116 10.6671 14 10.6667C14.1885 10.6662 14.3469 10.7302 14.4754 10.8587C14.6038 10.9871 14.6676 11.1453 14.6667 11.3333V13.3333C14.6667 13.7 14.5363 14.014 14.2754 14.2753C14.0145 14.5367 13.7005 14.6671 13.3334 14.6667ZM13.3334 4.66666V2.66666H11.3334C11.1445 2.66666 10.9863 2.60266 10.8587 2.47466C10.7312 2.34666 10.6672 2.18844 10.6667 1.99999C10.6663 1.81155 10.7303 1.65333 10.8587 1.52533C10.9872 1.39733 11.1454 1.33333 11.3334 1.33333H13.3334C13.7 1.33333 14.014 1.46399 14.2754 1.72533C14.5367 1.98666 14.6672 2.30044 14.6667 2.66666V4.66666C14.6667 4.85555 14.6027 5.01399 14.4747 5.14199C14.3467 5.26999 14.1885 5.33377 14 5.33333C13.8116 5.33288 13.6534 5.26888 13.5254 5.14133C13.3974 5.01377 13.3334 4.85555 13.3334 4.66666ZM8.00004 7.23333L10.6334 5.68333L8.00004 4.16666L5.36671 5.68333L8.00004 7.23333Z" fill="#101011"/>
</svg>
