<svg width="18" height="18" viewBox="0 0 18 18" fill="none" xmlns="http://www.w3.org/2000/svg">
<path fill-rule="evenodd" clip-rule="evenodd" d="M2.07902 12.2634C2.03712 12.3052 2.00387 12.3549 1.98118 12.4095C1.9585 12.4642 1.94682 12.5228 1.94682 12.582C1.94682 12.6412 1.9585 12.6998 1.98118 12.7545C2.00387 12.8091 2.03712 12.8588 2.07902 12.9006L5.26142 16.0821C5.34581 16.1665 5.46025 16.2138 5.57957 16.2138C5.6989 16.2138 5.81334 16.1665 5.89772 16.0821L16.0803 5.89949C16.1647 5.81511 16.2121 5.70067 16.2121 5.58134C16.2121 5.46202 16.1647 5.34758 16.0803 5.2632L12.8979 2.08169C12.8135 1.99733 12.6991 1.94994 12.5798 1.94994C12.4604 1.94994 12.346 1.99733 12.2616 2.08169L11.3076 3.03569L12.8457 4.57469C12.8886 4.61627 12.9228 4.66597 12.9464 4.7209C12.9699 4.77584 12.9822 4.8349 12.9826 4.89465C12.983 4.9544 12.9716 5.01364 12.9489 5.06891C12.9262 5.12418 12.8927 5.17437 12.8504 5.21656C12.8081 5.25875 12.7578 5.29209 12.7024 5.31464C12.6471 5.33719 12.5878 5.34849 12.5281 5.34789C12.4683 5.34729 12.4093 5.33479 12.3544 5.31114C12.2996 5.28748 12.25 5.25313 12.2085 5.21009L10.6713 3.67199L9.39782 4.94549L10.1934 5.7411C10.2754 5.82597 10.3208 5.93964 10.3197 6.05763C10.3187 6.17561 10.2714 6.28848 10.1879 6.37191C10.1045 6.45535 9.99164 6.50267 9.87365 6.5037C9.75567 6.50472 9.642 6.45937 9.55712 6.37739L8.76152 5.58179L7.48892 6.85439L9.02702 8.3925C9.07 8.43401 9.10429 8.48366 9.12787 8.53856C9.15145 8.59347 9.16387 8.65251 9.16439 8.71227C9.16491 8.77202 9.15352 8.83127 9.13089 8.88657C9.10827 8.94188 9.07485 8.99212 9.0326 9.03437C8.99035 9.07662 8.94011 9.11004 8.8848 9.13266C8.8295 9.15529 8.77024 9.16668 8.71049 9.16616C8.65074 9.16564 8.59169 9.15322 8.53679 9.12964C8.48189 9.10606 8.43223 9.07177 8.39072 9.0288L6.85262 7.49069L5.58002 8.7633L6.37562 9.5589C6.4186 9.60041 6.45289 9.65006 6.47647 9.70496C6.50005 9.75986 6.51247 9.81891 6.51299 9.87866C6.51351 9.93842 6.50212 9.99767 6.47949 10.053C6.45687 10.1083 6.42345 10.1585 6.3812 10.2008C6.33895 10.243 6.28871 10.2764 6.2334 10.2991C6.1781 10.3217 6.11884 10.3331 6.05909 10.3326C5.99934 10.332 5.94029 10.3196 5.88539 10.296C5.83049 10.2725 5.78084 10.2382 5.73932 10.1952L4.94372 9.3996L3.67022 10.6731L5.20922 12.2112C5.251 12.253 5.28413 12.3027 5.30672 12.3573C5.32931 12.412 5.34092 12.4705 5.34087 12.5297C5.34083 12.5888 5.32914 12.6473 5.30648 12.7019C5.28381 12.7566 5.25061 12.8062 5.20877 12.8479C5.16693 12.8897 5.11728 12.9229 5.06263 12.9454C5.00799 12.968 4.94943 12.9796 4.89031 12.9796C4.83118 12.9796 4.77264 12.9679 4.71803 12.9452C4.66342 12.9225 4.6138 12.8893 4.57202 12.8475L3.03392 11.3085L2.07902 12.2634ZM1.44362 13.5369C1.31817 13.4115 1.21866 13.2627 1.15076 13.0988C1.08286 12.935 1.04791 12.7594 1.04791 12.582C1.04791 12.4046 1.08286 12.229 1.15076 12.0652C1.21866 11.9013 1.31817 11.7525 1.44362 11.6271L11.6253 1.44539C11.7507 1.31994 11.8996 1.22043 12.0634 1.15253C12.2272 1.08463 12.4029 1.04968 12.5802 1.04968C12.7576 1.04968 12.9332 1.08463 13.097 1.15253C13.2609 1.22043 13.4098 1.31994 13.5351 1.44539L16.7166 4.62689C16.9697 4.88006 17.1119 5.22337 17.1119 5.58134C17.1119 5.93932 16.9697 6.28263 16.7166 6.5358L6.53402 16.7184C6.2809 16.9712 5.93778 17.1132 5.58002 17.1132C5.22227 17.1132 4.87915 16.9712 4.62602 16.7184L1.44362 13.5369Z" fill="#FFFFFF"/>
</svg>
