<svg width="24" height="25" viewBox="0 0 24 25" fill="none" xmlns="http://www.w3.org/2000/svg">
<path d="M17.99 1.73816C16.9813 1.63118 15.9675 1.57911 14.953 1.58216C11.59 1.58216 9.50005 3.72416 9.50005 7.17216V9.51316H6.67505C6.54244 9.51316 6.41526 9.56584 6.3215 9.6596C6.22773 9.75337 6.17505 9.88055 6.17505 10.0132V13.8632C6.17505 13.9958 6.22773 14.1229 6.3215 14.2167C6.41526 14.3105 6.54244 14.3632 6.67505 14.3632H9.50005V22.0832C9.50005 22.2158 9.55273 22.3429 9.64649 22.4367C9.74026 22.5305 9.86744 22.5832 10 22.5832H13.978C14.1107 22.5832 14.2378 22.5305 14.3316 22.4367C14.4254 22.3429 14.478 22.2158 14.478 22.0832V14.3632H17.294C17.4154 14.3632 17.5327 14.3191 17.624 14.2391C17.7152 14.159 17.7743 14.0485 17.79 13.9282L18.287 10.0782C18.2963 10.0076 18.2904 9.93586 18.2697 9.86777C18.249 9.79967 18.214 9.73678 18.167 9.68329C18.1201 9.62981 18.0623 9.58696 17.9974 9.55762C17.9326 9.52828 17.8622 9.51312 17.791 9.51316H14.478V7.55416C14.478 6.58416 14.673 6.17916 15.886 6.17916H17.925C18.0577 6.17916 18.1848 6.12648 18.2786 6.03271C18.3724 5.93894 18.425 5.81177 18.425 5.67916V2.23416C18.4251 2.11277 18.381 1.9955 18.301 1.90423C18.2209 1.81297 18.1104 1.75394 17.99 1.73816ZM17.425 5.17816L15.885 5.17916C13.728 5.17916 13.478 6.53516 13.478 7.55416V10.0142C13.478 10.1466 13.5306 10.2736 13.6241 10.3674C13.7177 10.4611 13.8446 10.5139 13.977 10.5142H17.223L16.854 13.3642H13.978C13.8454 13.3642 13.7183 13.4168 13.6245 13.5106C13.5307 13.6044 13.478 13.7315 13.478 13.8642V21.5822H10.5V13.8642C10.5 13.7315 10.4474 13.6044 10.3536 13.5106C10.2598 13.4168 10.1327 13.3642 10 13.3642H7.17605V10.5142H10C10.1327 10.5142 10.2598 10.4615 10.3536 10.3677C10.4474 10.2739 10.5 10.1468 10.5 10.0142V7.17216C10.5 4.29816 12.165 2.58216 14.953 2.58216C15.962 2.58216 16.873 2.63716 17.425 2.68516V5.17816Z" fill="#101011"/>
</svg>
