<svg width="18" height="18" viewBox="0 0 18 18" fill="none" xmlns="http://www.w3.org/2000/svg">
<path fill-rule="evenodd" clip-rule="evenodd" d="M8.97299 1.6875H9.02699C9.70499 1.6875 10.2517 1.6875 10.6935 1.72725C11.148 1.7685 11.5455 1.85625 11.9062 2.06475C12.3338 2.31143 12.689 2.66632 12.936 3.09375C13.1445 3.4545 13.2315 3.852 13.2727 4.3065C13.3125 4.74825 13.3125 5.295 13.3125 5.973V8.52825C13.683 8.60625 14.0182 8.76 14.289 9.06825C14.6227 9.45075 14.7315 9.92775 14.7772 10.4528L14.7802 10.488C14.8065 10.7955 14.832 11.0857 14.8155 11.3287C14.7967 11.607 14.721 11.8913 14.4952 12.1373C14.2627 12.3923 13.9687 12.486 13.6882 12.5265C13.5737 12.5425 13.4487 12.5525 13.3132 12.5565V15.75C13.3132 15.8992 13.254 16.0423 13.1485 16.1477C13.043 16.2532 12.8999 16.3125 12.7507 16.3125C12.6016 16.3125 12.4585 16.2532 12.353 16.1477C12.2475 16.0423 12.1882 15.8992 12.1882 15.75V12.5625H5.81324V15.75C5.81324 15.8992 5.75398 16.0423 5.64849 16.1477C5.543 16.2532 5.39993 16.3125 5.25074 16.3125C5.10156 16.3125 4.95848 16.2532 4.85299 16.1477C4.7475 16.0423 4.68824 15.8992 4.68824 15.75V12.5565C4.56232 12.5528 4.43666 12.5428 4.31174 12.5265C4.03124 12.486 3.73799 12.3915 3.50474 12.1373C3.27899 11.8913 3.20324 11.607 3.18449 11.3287C3.16799 11.0857 3.19349 10.7948 3.21974 10.4887L3.22274 10.4528C3.26774 9.92775 3.37724 9.45075 3.71099 9.069C3.98174 8.76 4.31699 8.60625 4.68749 8.52825V5.973C4.68749 5.295 4.68749 4.74825 4.72724 4.3065C4.76849 3.852 4.85624 3.4545 5.06474 3.09375C5.31142 2.66614 5.66631 2.31099 6.09374 2.064C6.45449 1.85625 6.85199 1.7685 7.30649 1.72725C7.74824 1.6875 8.29499 1.6875 8.97299 1.6875ZM6.33299 8.4375H5.81249V6C5.81249 5.289 5.81249 4.7925 5.84774 4.4085C5.88224 4.03125 5.94524 3.8175 6.03899 3.65625C6.18694 3.39965 6.39982 3.18651 6.65624 3.03825C6.81749 2.94525 7.03124 2.88225 7.40849 2.84775C7.79249 2.81325 8.28899 2.8125 8.99999 2.8125C9.71099 2.8125 10.2075 2.8125 10.5915 2.84775C10.9687 2.88225 11.1825 2.94525 11.3437 3.03825C11.6002 3.18675 11.8132 3.39975 11.9617 3.65625C12.0547 3.8175 12.1177 4.03125 12.1522 4.4085C12.1867 4.7925 12.1875 5.289 12.1875 6V8.4375H6.33299ZM6.37499 9.5625C5.73824 9.5625 5.32499 9.564 5.02049 9.61125C4.73999 9.654 4.63274 9.72375 4.55774 9.81C4.46324 9.918 4.38224 10.098 4.34399 10.5487C4.31324 10.9043 4.29749 11.1075 4.30649 11.2537C4.30807 11.2903 4.31412 11.3266 4.32449 11.3617C4.32749 11.3693 4.32899 11.3715 4.33349 11.3767L4.33424 11.3775L4.33649 11.379L4.34399 11.3827C4.35899 11.3903 4.39649 11.4023 4.47074 11.4128C4.63424 11.436 4.86374 11.4375 5.25074 11.4375H12.7507C13.1362 11.4375 13.3657 11.436 13.5292 11.4128C13.5753 11.4075 13.6204 11.3961 13.6635 11.379L13.6657 11.3783L13.6665 11.3767L13.6755 11.3617C13.6856 11.3266 13.6914 11.2903 13.6927 11.2537C13.7025 11.1075 13.6867 10.9043 13.656 10.5487C13.6177 10.0988 13.5367 9.918 13.4422 9.81C13.3672 9.7245 13.26 9.654 12.9795 9.61125C12.675 9.564 12.2617 9.5625 11.625 9.5625H6.37499Z" fill="#111111"/>
</svg>
