<svg width="22" height="22" viewBox="0 0 22 22" fill="none" xmlns="http://www.w3.org/2000/svg">
<path d="M5.5 7.33325H9.16667" stroke="#FFFFFF" stroke-width="1.5" stroke-linecap="round" stroke-linejoin="round"/>
<path d="M19.0969 8.25H16.7118C15.0755 8.25 13.75 9.48108 13.75 11C13.75 12.5189 15.0764 13.75 16.7108 13.75H19.0969C19.1739 13.75 19.2115 13.75 19.2436 13.7482C19.7386 13.7179 20.1327 13.3522 20.1648 12.8929C20.1667 12.8636 20.1667 12.8278 20.1667 12.7572V9.24275C20.1667 9.17217 20.1667 9.13642 20.1648 9.10708C20.1318 8.64783 19.7386 8.28208 19.2436 8.25183C19.2124 8.25 19.1739 8.25 19.0969 8.25Z" stroke="#FFFFFF" stroke-width="1.5"/>
<path d="M19.2179 8.24996C19.1464 6.53396 18.9172 5.48163 18.1756 4.74096C17.1022 3.66663 15.3734 3.66663 11.9166 3.66663H9.16665C5.7099 3.66663 3.98106 3.66663 2.90765 4.74096C1.83423 5.81529 1.83331 7.54321 1.83331 11C1.83331 14.4567 1.83331 16.1855 2.90765 17.259C3.98198 18.3324 5.7099 18.3333 9.16665 18.3333H11.9166C15.3734 18.3333 17.1022 18.3333 18.1756 17.259C18.9172 16.5183 19.1473 15.466 19.2179 13.75" stroke="#FFFFFF" stroke-width="1.5"/>
<path d="M16.4917 11H16.5017" stroke="#FFFFFF" stroke-width="2" stroke-linecap="round" stroke-linejoin="round"/>
</svg>
